<?xml version="1.0" encoding="UTF-8"?>
<svg version="1.1" viewBox="0 0 2000 2000" width="1280" height="1280" xmlns="http://www.w3.org/2000/svg">
<path transform="translate(496,737)" d="m0 0h28l23 2 21 4 26 8 19 7 2 2-2 13-4 22 1 4 11 12 12 12 14 21 12 19 1 1h5l4-7h54l-1 12-6 36-6 42-13 70-5 26v11l3 8 9 8 5 2h10l7-3 5-7 3-9 7-46 18-97 6-42 2-4 8-1 2-6h51l9 1-15 71-6 29-7 39-16 74-5 14-7 12-9 10-11 11-14 9-15 6-14 3-18 1-16-1-17-4-12-6-4-3h-2l-9 16-7 14-24 33-2 3h-2l-2 4-12 14-15 16-9 9-8 7-22 18-9 6-12 7-9 6-16 8-36 12-19 4-18 2h-13l-19-2-21-5-26-10-14-8-13-10-18-15-11-14-8-10-12-18-6-14-8-16-8-21-4-17-4-35v-23l3-44 4-26 6-23 8-22 11-28 13-24 16-28 20-26 9-10 5-6h2l2-4h2l1-3 8-7 10-9 14-11 17-12 24-18 15-16 10-8 10-7 17-8 12-4zm109 74-8 43v5l-8-1-2 10-10-6-14-8-12-6-16-5h-14l-8 2-4 4-4 9-1 10 4 15 8 16 7 11 11 9 8 10 11 12 6 8 7 12 10 16 7 15 4 13 6 29 1 18-2 17-4 18-4 15-7 14-11 18-11 13-8 10-12 11-17 12-16 8-23 10-20 5-14 2h-22l-19-3-17-5-25-11-15-8-9-7v-13l4-37 7-52v-6l7 1 2-2v-6l23 11 10 7 17 7 18 4h25l9-3 5-6 3-12v-18l-4-16-5-12-8-10-19-19-9-7-8-9-7-10-7-9-12-22-7-25-3-16-1-9v-16l4-25 4-17-5 1-12 10-10 8-10 10-7 8-9 11-9 13-7 10-11 21-11 20-7 17-8 26-6 26-3 19-1 12v43l3 18 6 21 9 24 9 17 10 13 10 14 16 16 8 7 7 5 28 14 17 6 20 3h32l15-2 21-6 32-14 16-9 12-9 18-14 5-5 12-11 13-13 7-8 8-8 10-14 6-9 8-11 2-4-1-7-4-18v-14l5-28 6-33 5-35 12-64 2-11v-9l-5-12-12-22-6-9-9-11-14-15z" fill="#D62721"/>
<path transform="translate(403,787)" d="m0 0h1l-1 8-11 26-4 19-2 12v23l4 25 6 17 5 12 14 25 8 10 7 7 7 8 8 7 8 6 5 5 7 10 7 12 4 10 1 5v21l-4 11-3 5-4 1 1-8v-18l-4-16-5-12-8-10-18-18-9-7-7-7-8-12-6-7-12-21-4-11-6-22-3-21v-16l4-25 4-16-5 2-11 9-10 8-9 9-7 8-9 11-9 13-7 10-11 21-11 20-7 17-8 26-6 26-3 19-1 12v43l3 18 6 21 9 24 9 17 10 13 10 14 15 15 8 7 7 5 28 14 17 6 20 3h32l15-2 21-6 32-14 16-9 12-9 18-14h2l2-4 13-12 12-12 7-8 8-8 10-14 6-9 8-11 2-4-1-7-4-18v-14l5-28 6-33 5-35 12-64 2-11v-9l-5-12-12-22-6-9-9-11-13-14-2-2 1-1v-9h4l7 8 14 14 14 21 12 19 1 1h5l4-7h54l-1 12-6 36-6 42-13 70-5 26v11l3 8 9 8 5 2h10l7-3 5-7 3-9 7-46 18-97 6-42 2-4 8-1 2-6h51l9 1-15 71-6 29-7 39-16 74-5 14-7 12-9 10-11 11-14 9-15 6-14 3-18 1-16-1-17-4-12-6-4-3h-2l-9 16-7 14-24 33-2 3h-2l-2 4-12 14-15 16-9 9-8 7-22 18-9 6-12 7-9 6-16 8-36 12-19 4-18 2h-13l-19-2-21-5-26-10-14-8-13-10-18-15-11-14-8-10-12-18-6-14-8-16-8-21-4-17-4-35v-23l3-44 4-26 6-23 8-22 11-28 13-24 16-28 20-26 9-10 5-6h2l2-4h2l1-3 8-7 10-9 14-11 17-12 12-9z" fill="#120E0C"/>
<path transform="translate(1664,849)" d="m0 0h25l71 1 14 5 8 5 8 8 8 15 2 7 1 14v18l-3 18-5 15-9 16-8 9-14 10-5 5-1 2 3 9 9 46 13 56v3l-5 1h-10v9l-1 1h-57l-3-6-11-51-8-35-2 7-4 30-6 39-2 5-11 1-1 9-2 1h-57l1-10 9-50 7-44 11-57 6-33 6-41 5-25 2-2h13v-9zm43 61-2 6-5 35v7l2 1h9l12-4 6-4 5-6 2-5v-16l-2-5-4-4-13-4z" fill="#D62822"/>
<path transform="translate(1532,842)" d="m0 0h16l12 3 12 5 11 7 10 9 8 10 8 14 5 21 2 20v28l-2 25-5 29-6 22-7 20-13 26-11 16-8 10-8 8-18 11-10 5-13 4-13 2h-20l-14-2-9-4-9-5-10-9-8-11-7-15-5-17-3-22v-27l4-27 7-31 10-32 7-16 12-18 9-15 10-12 7-8 10-8 14-8 11-5zm-10 70-9 5-10 13-7 14-5 18-4 23-1 22v17l1 13 4 12 6 9 4 2 10 1 8-3 12-11 6-11 4-13 6-25 4-25 1-10v-19l-3-14-4-10-5-5-5-3z" fill="#D52721"/>
<path transform="translate(863,857)" d="m0 0h97l15 4 6 3 7 7 8 13 4 9 2 13v24l-3 18-5 13-8 16-7 11-12 13-7 6v8l10 48 10 43 1 10-9 2 1 13h-59l-2-5-6-31-13-59-3-14v-4h-2l-3 26-7 49-4 22-3 2h-4l-2 13-1 1-51 1h-5l-1-2 4-20 2-17 7-41 14-73 7-45 10-53 2-10 7-5 2-8zm45 56-2 13-5 41h11l14-5 6-5 3-7 1-5v-15l-3-7-4-5-8-4-5-1z" fill="#D52721"/>
<path transform="translate(1270,852)" d="m0 0h78l12 2 19 8 8 6 9 8 11 14 6 13 4 20 1 8v25l-3 25-5 22-12 29-10 19-7 14-13 20-11 14-11 11-14 9-14 7-13 4-5 1-77 1-5-1 1-11 15-85 5-37 12-69 8-45 2-17 7-5 1-9zm44 63-6 39-14 74-4 26 1 5 1 1 14-1 10-4 13-13 6-7 9-25 3-16 1-7v-33l-3-14-5-12-7-9-5-3-5-1z" fill="#D52721"/>
<path transform="translate(669,857)" d="m0 0h54l-1 12-6 36-6 42-13 70-5 26v11l3 8 9 8 5 2h10l7-3 5-7 3-9 7-46 18-97 6-42 2-4 8-1 2-6h51l9 1-15 71-6 29-7 39-16 74-5 14-7 12-9 10-11 11-12 8h-2v-3l-18 5-11 1h-9l-21-3-20-6-11-6-10-9-6-9-5-15-1-7-1-27 2-12 1-11 4-26 5-25 11-57 4-22 2-16v-12h2l2-6z" fill="#D52822"/>
<path transform="translate(1030,852)" d="m0 0h129l2 1-3 30-3 23-1 2-8 1-2 14-2 1-30 1-4 27-12 66-8 45-4 29-3 18-2 6-7 1-1 9-3 7h-58l2-20 5-35 11-61 7-39 6-42 2-12h-33l-1-3 4-26 3-27 1-1h8l3-14z" fill="#D52722"/>
<path transform="translate(1187,852)" d="m0 0h52v9l-6 41-16 96-6 46-9 52-4 19-7 2h-2v5l-2 2h-56l1-9 4-25 5-35 10-55 8-46 7-49 7-40 2-5 9-1 1-6z" fill="#D52822"/>
<path transform="translate(232,701)" d="m0 0h47l-1 9-7 19-3 8-21 1 1 6 15 2 2 4-3 19-2 13-1 1h-19l-1 8 20 1 2 4-1 18-3 2-2 12-1 1h-51l-1-3 9-46 6-37 6-25 4-7z" fill="#D22923"/>
<path transform="translate(304,701)" d="m0 0h19l-1 10-4 25-7 54 16 1 1 5-1 19-8 2-1 11-1 1h-45l-1-1 1-10 10-50 7-40 4-15 7-2 3-9z" fill="#D42822"/>
<path transform="translate(1648,860)" d="m0 0h7l4 1-1 12-6 34-10 51-9 58-11 57-6 31-1 8 44 1 1 1v7l-2 1h-57l1-10 9-50 7-44 11-57 6-33 6-41 5-25z" fill="#140E0C"/>
<path transform="translate(1017,867)" d="m0 0h8l-1 11-4 21v9l34 1-3 21-8 40-5 30-3 22-7 43-3 16-5 26-1 9 47 1 5 2v7l-3 7h-58l2-20 5-35 11-61 7-39 6-42 2-12h-33l-1-3 4-26 3-27z" fill="#18100F"/>
<path transform="translate(1441,931)" d="m0 0h1v5h-2l-2 12-1 2-1 7-1 1-5 34-3 25v16l3 26 8 27 6 12 7 9 8 6 14 6 13 3h25l15-2 28-10 7-3 4-2-6 7-5 4-19 12-16 6-17 3h-20l-14-2-9-4-9-5-10-9-8-11-7-15-5-17-3-22v-27l4-27 7-31 10-32z" fill="#120D0B"/>
<path transform="translate(1263,865)" d="m0 0h4l-9 63-7 38-9 50-9 59-4 27-1 6v8l9 1h31l48-1 18-6 13-8 5-2 6-4-2 4-10 10-14 9-14 7-13 4-5 1-77 1-5-1 1-11 15-85 5-37 12-69 8-45 2-17z" fill="#1B0C09"/>
<path transform="translate(1182,859)" d="m0 0h1v8l-8 45-5 23-3 18-5 32-4 31-10 54-3 16-4 21v9l4 1 40 1 3 2 1-2-1 5-1 1h-56l1-9 4-25 5-35 10-55 8-46 7-49 7-40 2-5z" fill="#220A0B"/>
<path transform="translate(1692,992)" d="m0 0 4 1 5 17 9 42 8 44 2 15 5 1 36 1 5 3v5l-1 1h-57l-3-6-11-51-8-35 2-27 2-10z" fill="#130E0C"/>
<path transform="translate(349,1063)" d="m0 0 6 1 1 11-6 42-2 17-2 8-1 14 2 7 11 8 7 5 20 9 16 5 22 5 6 1h30l21-4 6-2 12-1v2l-19 8-20 5-14 2h-22l-19-3-17-5-25-11-15-8-10-8v-13l4-37 7-52z" fill="#19100E"/>
<path transform="translate(857,868)" d="m0 0 3 1v7l-8 38-6 30-7 38-4 27-5 31-2 8-5 29-4 18-3 15v6l41 1 8 1 1 1-1 11-1 1-51 1h-5l-1-2 4-20 2-17 7-41 14-73 7-45 10-53 2-10z" fill="#2B1617"/>
<path transform="translate(609,800)" d="m0 0 3 1 7 8 14 14 14 21 12 19 6 2-2 1 1 2v10l-3 23-4 21-7 36-6 28-3 16-2 19-1 3-2 18-2 9h-3v-3l-5 3 3-18 6-33 5-35 12-64 2-11v-9l-5-12-12-22-6-9-9-11-13-14-2-2 1-1v-9z" fill="#260D0E"/>
<path transform="translate(893,999)" d="m0 0h4l5 18 7 29 5 27 5 30 3 13 41 1 7 1v10l1 3h-57l-2-5-6-31-13-59-3-14v-17z" fill="#130E0C"/>
<path transform="translate(1528,900)" d="m0 0h12l7 2 6 7 5 10 2 6v29l-2 24-7 32-4 10-3 10-5 12-8 9-3 1 1-4 6-9 5-16 6-25 4-25 1-10v-19l-3-14-4-10-2-4-4-2-3-1h-13l-6 3h-3l2-7 9-8z" fill="#130D0B"/>
<path transform="translate(392,926)" d="m0 0h3v2h2l4 9 3 3 1 5 3 1 5 10v2h2l1 4h2l7 8 1 3h2v2h3v3l4 2 6 5v2h2v2l5 2 6 4 4 5 3 5v2h2l3 7 3 3 3 7 2 9 2 4v10l-2 2-1 5h-2l-1-7v-3h-3l-6-20-4-8-12-13-13-13-9-7-7-7-8-12-6-7-12-21-3-8h5z" fill="#150D0B"/>
<path transform="translate(767,864)" d="m0 0 6 1v11l-3 16-5 26-4 25-4 26-5 29-5 23-3 14-4 13-3 8-1 2-3-1 3-17 5-33 18-97 6-42z" fill="#240B0C"/>
<path transform="translate(1030,1027)" d="m0 0h1l1 15-5 27-7 38-1 9 47 1 5 2v7l-3 7h-58l2-20 4-27 5-2-1-7 1-5v-10h2v2h2l-1-10h2v-12l1 2h2l-1-12z" fill="#1B0C09"/>
<path transform="translate(295,712)" d="m0 0h3l1 7-3 18-7 33-4 20-4 26 34 1h3v11l-1 1h-45l-1-1 1-10 10-50 7-40 4-15z" fill="#2A1314"/>
<path transform="translate(386,842)" d="m0 0h1l-1 10v23l4 25 6 17 5 12 14 25 8 10 7 7 7 8 8 7 8 6 5 5 7 10 7 12 4 10 1 5v21l-4 11-3 5-4 1 1-8v-20h3l1 7v3h2v-5l2-2v-10l-2-4-2-9-3-7v-2l-3-1-2-4v-3h-2l-4-7v-2l-3-1v-2l-5-2-6-4v-2h-2v-2l-4-2-6-5v-3h-3v-2h-2l-5-7-3-2v-2h-2l-1-4h-2l-6-12-2-1-2-7-3-1-3-9h-2v-2h-3v2h-5l-6-21-3-16-1-9v-16l3-21z" fill="#1C0E0B"/>
<path transform="translate(1318,905)" d="m0 0h11l10 5 9 8 5 10 4 14v36l-6 29-4 8-3 8-8 13-2-1 9-25 3-16 1-7v-33l-3-14-5-12-7-9-9-3-8-1 2-1v-8z" fill="#120C0A"/>
<path transform="translate(1263,865)" d="m0 0h4l-9 63-7 38-9 50-9 59-3 21-3 3-3 6v5l-2 5-2-1 14-79 5-37 12-69 8-45 2-17z" fill="#231110"/>
<path transform="translate(1613,1077)" d="m0 0h2v2l3 1 1 8-4 24 44 1 1 1v7l-2 1h-57l1-10 5-26 3-3z" fill="#1C0C0A"/>
<path transform="translate(609,800)" d="m0 0 3 1 7 8 14 14 6 9-1 2-1-1-1 4 6 4 5 9 7 14 6 4 2 4-1 18-4 15-2 1v-9l1-4h-2v-12l-5-12-12-22-6-9-9-11-13-14-2-2 1-1v-9z" fill="#19110F"/>
<path transform="translate(810,1117)" d="m0 0 5 1 1-1h41l8 1 1 1-1 11-1 1-51 1h-5l-1-2z" fill="#20120F"/>
<path transform="translate(1692,992)" d="m0 0 4 1 5 17 9 42v5h-3l-4-11-4-16-2-4-2 2v22l1 6 1 4v10h-2l-9-40 2-27 2-10z" fill="#1D0D0A"/>
<path transform="translate(919,1107)" d="m0 0h1l2 9 41 1 7 1v10l1 3h-57l-2-5-2-12v-6l2 3 3 10 1 3 6 1 2-1-1-5h-2l-2-4z" fill="#1B0B09"/>
<path transform="translate(526,836)" d="m0 0h18l14 3 10 4 14 8 6 7 1 6-2 5-10-6-14-8-12-6-16-5h-20l1-4 6-3z" fill="#130C0A"/>
<path transform="translate(1443,1102)" d="m0 0h4l6 7 10 6 13 5 10 2h25l15-2 28-10 7-3 4-2-6 7-5 4-19 12-16 6-17 3-3-1 1-2 15-5-3-1-10 1-7-2-16-4-11-2-10-4-8-4v-2l-4-2-3-4z" fill="#1F110E"/>
<path transform="translate(349,1063)" d="m0 0 6 1 1 11-6 42-2 17-3 14h-2v3h-2l-1 7v13 3l-3-3v-13l4-37 7-52z" fill="#210A0A"/>
<path transform="translate(208,797)" d="m0 0h2v8l-1 1v10l47 1-1 11-1 1h-51l-1-3z" fill="#1A0B09"/>
<path transform="translate(1441,931)" d="m0 0h1v5h-2l-2 12-1 2-1 7-1 1-5 34-3 25v31h-1l-2-13-2-3-1-15-1 32v13h-2l-1-10v-27l4-27 7-31 10-32z" fill="#270E0F"/>
<path transform="translate(767,864)" d="m0 0 6 1v11l-3 16-5 26-4 25-4 26-3 16-2 1-1-3 4-19v-7l3-10v-8l-2 1-2-2 6-36 5-34z" fill="#1B0C0A"/>
<path transform="translate(652,1121)" d="m0 0 10 4v2h10l9 3v-4l-7-3 4-1 16 4 15 2h9l11-1 14-4h4v4l-15 6-14 3-18 1-16-1-17-4-12-6-3-2z" fill="#270A0C"/>
<path transform="translate(1343,935)" d="m0 0 4 1 3 12 4 2 1 3 1-11h1v36l-6 29-4 8-3 8-8 13-2-1 9-25 3-16 1-7v-33l-3-14z" fill="#1B0D0A"/>
<path transform="translate(629,1048)" d="m0 0h2l4 6 1 20 3 14 4 9 6 9 3 4-10-5-2-4-3-3-5-1 1 3-4 9-3 4-3-1 3-7 3-5-1-7-4-18v-14l2-10z" fill="#1A0B09"/>
<path transform="translate(1710,893)" d="m0 0h7l10 3 6 4 5 6 3 8v11l-4 13h-1l-1-14-2-5-3-3-13-4-5-1v-2l-4-1v-9z" fill="#120D0B"/>
<path transform="translate(1357,1096)" d="m0 0v3l-11 11-14 9-14 7-9 3-44-1-3-2 12-3 19-2 17-3h6v-2l18-6 13-8 5-2z" fill="#120D0B"/>
<path transform="translate(1042,957)" d="m0 0 1 3-2 12v9l-4 26-3 21-2 7h-1l-1-5-1 2v12h-2l-1 10h-2l1 10h-2v-2h-2l1 2v10l-1 4v6l-5 2 6-36 9-49 4-23 2-16 1-3z" fill="#1E0A0A"/>
<path transform="translate(275,810)" d="m0 0 2 4 3 3h35 3v11l-1 1h-45l-1-1 1-10z" fill="#1C0C09"/>
<path transform="translate(893,999)" d="m0 0h4l5 18 6 25-1 4-1-5-5 3v22l-2-2-8-36-1-6v-17z" fill="#1C0D0A"/>
<path transform="translate(1240,991)" d="m0 0 3 1 2 2-2 16-5 31-7 49-1 6-3 3-3 6v5l-2 5-2-1 14-79 5-37z" fill="#271414"/>
<path transform="translate(1136,1090)" d="m0 0 6 2 1 4-2 11v9l4 1 40 1 3 2 1-2-1 5-1 1h-56l1-9z" fill="#271010"/>
<path transform="translate(1017,867)" d="m0 0h8l-1 11-4 21v9l23 1v1l-12 2-4 2 3 6-6 1h-10l-1-3-3-1 5-37 1-12z" fill="#2B1415"/>
<path transform="translate(1030,1027)" d="m0 0h1l1 15-5 27-7 38-1 9 31 1-1 2h-34l-2 1 1-6-2-1 4-27 5-2-1-7 1-5v-10h2v2h2l-1-10h2v-12l1 2h2l-1-12z" fill="#270A0C"/>
<path transform="translate(1175,860)" d="m0 0h5l2 5-4 18-3 21-3 14h-2l-1 7h-3-2v-8l9-52z" fill="#1B0E0B"/>
<path transform="translate(1558,945)" d="m0 0h1v23l-2 16-5 21-3 10-5 15-5 12-8 9-3 1 1-4 6-9 5-16 6-25 3-18 1-2h2l-1 10 1 1 2-13v-10l2 3z" fill="#270F10"/>
<path transform="translate(1116,909)" d="m0 0h27l2 1-1 13-2 1h-30l2-9z" fill="#160E0C"/>
<path transform="translate(911,906)" d="m0 0h9l13 5 6 5 3 9v10l-2 14-3 7-5 4-3-1 4-6 2-8v-15l-3-7-5-5-6-3-12-2 2-2-1-4z" fill="#19100F"/>
<path transform="translate(1154,992)" d="m0 0h1l1 5 2 1-2 22-3 6-1 17-3 11-2 1-2 11h-2l-1-4-2-1 11-61 1-7z" fill="#1E110E"/>
<path transform="translate(952,1118)" d="m0 0h18v9l-3 2h-21l-16-3 2-4 2-2v-1z" fill="#110C0A"/>
<path transform="translate(822,1047)" d="m0 0h2l-1 7 1 2 2-1-3 22-4 18-3 15v8l-2 1-4-3 3-23 7-41z" fill="#2B1818"/>
<path transform="translate(437,982)" d="m0 0 4 1 11 8 5 4 10 15 8 16 2 8v21l-4 11-3 5-4 1 1-8v-20h3l1 7v3h2v-5l2-2v-10l-2-4-2-9-3-7v-2l-3-1-2-4v-3h-2l-4-7v-2l-3-1v-2l-5-2-6-4v-2h-2v-2l-4-2z" fill="#1A0A08"/>
<path transform="translate(526,836)" d="m0 0h18l14 3 10 4 14 8 1 2-5-1v-2l-5-1-11-6-13-2-2 4-4 1-8-2h-20l1-4 6-3z" fill="#260A0B"/>
<path transform="translate(1050,1119)" d="m0 0h17l1 1v5l-4 5-3 1h-18l-8-5 2-3 13-3z" fill="#110C0A"/>
<path transform="translate(635 1e3)" d="m0 0 3 1v11l1 1v7l-1 3-2 18-2 9h-3v-3l-5 3 3-18z" fill="#260D0E"/>
<path transform="translate(1633,1007)" d="m0 0 1 3-10 53-2 10-3 2-1-2-2 3v-2h-2l-1-7 3-11 5-7 4-12 3-7 2-16z" fill="#110D0B"/>
<path transform="translate(1617,1024)" d="m0 0 2 1 1 1v12l-2 3v6h2l1 5-4 4-3 13 1 3-1 2 5-2 2 2-1 9-2 1-1-4-2-1v-2l-2 1-4 8-2-1 7-43z" fill="#251715"/>
<path transform="translate(857,868)" d="m0 0 3 1v7l-5 24-4 4-2 7-4 8-1-2 8-43 3-5z" fill="#291414"/>
<path transform="translate(1355,963)" d="m0 0h1v20l-5 24-4 8-3 8-8 13-2-1 9-25 2-6h3l2-20 2-1 1-16h2z" fill="#240A0B"/>
<path transform="translate(609,800)" d="m0 0 3 1 7 8 14 14 6 9-1 2-7-6-5-7-3-1-1 4v3l-13-14-2-2 1-1v-9z" fill="#1B0F0D"/>
<path transform="translate(349,1063)" d="m0 0h4l1 11-1 4h-2l-1 9v14l-2 5h-1v18l-2 10h-3l2-16h-2l2-20 4-30z" fill="#161210"/>
<path transform="translate(242,769)" d="m0 0h12l6 1 1 4-1 8-1 1h-16l-3-3 1-10z" fill="#402526"/>
<path transform="translate(1240,991)" d="m0 0 3 1 2 2-2 16-5 31-2 5-4 2 7-50z" fill="#2C1919"/>
<path transform="translate(1018,901)" d="m0 0h1l1 7 23 1v1l-12 2-4 2 3 6-6 1h-10l-1-3-3-1 2-14 4 2h1z" fill="#260C0D"/>
<path transform="translate(652,1121)" d="m0 0 10 4v2h10l9 3 1-4 7 2 11 1v1h-8l1 4 18 1v1l-11 1-16-1-17-4-12-6-3-2z" fill="#221512"/>
<path transform="translate(1034,910)" d="m0 0h7l1 9 2 4-22 1h-12l-1-3 1-3h3l2 2h13v-2l-1-4z" fill="#20120F"/>
<path transform="translate(1228,1096)" d="m0 0h1l-1 20 9 1h79v1l-6 1-42 1h-39l-5-2-1-10 1-4z" fill="#270A0C"/>
<path transform="translate(1443,1102)" d="m0 0h4l6 7 10 6 13 5 10 2h25l13-1-4 2-10 3h-17l-25-5-10-4-8-4v-2l-4-2-3-4z" fill="#260A0B"/>
<path transform="translate(1761,1114)" d="m0 0 5 2v5l-1 1h-57l-2-4h4l15-1 1 1 36 1z" fill="#180D0B"/>
<path transform="translate(253,725)" d="m0 0h16l2 1-2 9-1 2h-11l-6-2 1-8z" fill="#270D0D"/>
<path transform="translate(844,1119)" d="m0 0h18l1 3-1 5-10 2-12-1-3-1v-3l-2-1 1-1 7-1z" fill="#110C0A"/>
<path transform="translate(1545 1e3)" d="m0 0 4 2-1 6h-1v9l-3 10-5 12-8 9-3 1 1-4 6-9 5-16z" fill="#231111"/>
<path transform="translate(1027,1023)" d="m0 0 3 1v6l-1 2v12h-2l-1 10h-2l1 10h-2v-2h-2l1 2v10l-1 4v6l-5 2 6-36z" fill="#1F1B19"/>
<path transform="translate(339,860)" d="m0 0 2 1-2 5-9 12-10 14-3 5-4-2 6-12 3-5h2v-3h2v-2h2v-4l4-2 3-3z" fill="#1E100D"/>
<path transform="translate(1263,865)" d="m0 0h4l-3 21-2 16-4 2-1 4-2 1 4-25 2-17z" fill="#271414"/>
<path transform="translate(636,832)" d="m0 0 4 1 12 19 7 11 6 2-2 1 1 2v10l-1 7h-2v-13l-3-5-5-3-7-14-6-10-5-3z" fill="#1E100E"/>
<path transform="translate(1144,1119)" d="m0 0 39 1 4 2v2h-53v-1l6-2z" fill="#180B08"/>
<path transform="translate(217,819)" d="m0 0h28l2 5-3 2h-15l-15-2 1-4z" fill="#110D0B"/>
<path transform="translate(1563,1105)" d="m0 0 2 1-9 9-14 9-5-1v-2l-8 2-5-1 4-3 15-5 17-6z" fill="#271010"/>
<path transform="translate(763,918)" d="m0 0h1v8l-3 17-4 26-3 16-2 1-1-3 4-19v-7l3-10v-8l-2 1-2-2 2-12h3l1 3z" fill="#270A0C"/>
<path transform="translate(1357,1096)" d="m0 0v3l-11 11-14 9-5 2 1-6-8 1 3-2 13-5 11-7 5-2z" fill="#2C1415"/>
<path transform="translate(1147,1054)" d="m0 0h1v9l-2 6-4 23h-2l-1 2-2-4 1-14 2-14h2l1 4h2l1-11z" fill="#180D0A"/>
<path transform="translate(1423,996)" d="m0 0h1v14l-2 6h-2v46h-2l-1-10v-27l3-22z" fill="#1D1917"/>
<path transform="translate(295,712)" d="m0 0h3l1 7-3 18-5 3-2-4v-8l4-15z" fill="#1A0F0D"/>
<path transform="translate(1260,903)" d="m0 0h1l-1 11-5 31-2 2v-12h-2l1-11 3-15 3-5z" fill="#230A0B"/>
<path transform="translate(337,1280)" d="m0 0 9 3 7 3 9 3 13 4 3 2v2l9 1-1 2-21-5-26-10-4-2v-2z" fill="#261816"/>
<path transform="translate(850,900)" d="m0 0 2 3 2-1-5 26-2 12-2 2-1-8h-2l1-11 3-8 1-5 2-2z" fill="#240A0B"/>
<path transform="translate(383,843)" d="m0 0 1 2-1 2v28h-1l-1 19-1-3h-2l-1-9v-16l3-21z" fill="#231715"/>
<path transform="translate(828,1023)" d="m0 0h2l1 4v9l-3 12-2 7-3 2-1-8 2-2h-2l1-10 3-12z" fill="#241313"/>
<path transform="translate(387,928)" d="m0 0 4 1 1 3 5 5 4 8 2 3-1 5 3 4v2h5l3 8 6 8v2l-3-1-8-12-6-7-12-21z" fill="#2C1311"/>
<path transform="translate(1182,859)" d="m0 0h1v8l-8 45-5 23h-3l-1-4v-11h1l1 5 2-7h2l1-10 3-15 2-16 3-12-1-5z" fill="#270A0C"/>
<path transform="translate(758,935)" d="m0 0h1v12l-3 11v7l-3 7-2 1-1-14 4-20h3z" fill="#170B08"/>
<path transform="translate(1042,957)" d="m0 0 1 3-2 12v9l-1 6-4-1 1 9-5 1 4-27 2-10z" fill="#1E0B0A"/>
<path transform="translate(692,1130)" d="m0 0h30l1 5-5 1-25-1-2-3z" fill="#1B0D0A"/>
<path transform="translate(494,1189)" d="m0 0h4v2l-19 8-12 3v-2l-2-2 1-3 17-4z" fill="#241211"/>
<path transform="translate(1014,1098)" d="m0 0 1 2 4 1 1 1-1 14 31 1-1 2h-34l-2 1 1-6-2-1z" fill="#280C0E"/>
<path transform="translate(625,1055)" d="m0 0 2 1-1 10 3-1 1 6h3l2 8-3 6-4 1-2-5h-1l-1-6v-14z" fill="#181412"/>
<path transform="translate(1613,1077)" d="m0 0h2v2l3 1v5l-3 4-2 10-2 4h-4l1-13-1-4 3-3z" fill="#110C0A"/>
<path transform="translate(749,964)" d="m0 0h2l1 8 2-1-3 19-2 6h-2l-1-5-2-1z" fill="#1F1412"/>
<path transform="translate(353,1064)" d="m0 0h2l1 11-5 35-2 1v-24l1-11 1 2h2v-10l-2-2h2z" fill="#260A0B"/>
<path transform="translate(1155,1021)" d="m0 0h1l-1 12-7 37-3 16-1 7-2-1v-7l3-16 2-6 2-14 2-6 1-17z" fill="#260A0B"/>
<path transform="translate(1710,893)" d="m0 0h7l10 3 6 4v1h-5l-4-2h-7l-4 1-1 9-4-1v-9z" fill="#1C0A08"/>
<path transform="translate(381,874)" d="m0 0 3 2 2 13 1 4v3l1 6h-4l-1 2v-4h-2l-1 2-1-11h1z" fill="#130F0D"/>
<path transform="translate(768,892)" d="m0 0h1l-1 10-3 16h-2l-1 8-2 7h-1v-7h-2l1-10 1-6h2l1-6 2 4z" fill="#261011"/>
<path transform="translate(384,820)" d="m0 0 3 1-2 1 1 2-6 3-11 9-6 4-4-1 6-7 7-6h2v-2l2-2h6z" fill="#221512"/>
<path transform="translate(1119,913)" d="m0 0 1 4v2l24 3-2 2h-30l2-9 4-1z" fill="#3F3331"/>
<path transform="translate(940,921)" d="m0 0 2 4v10l-2 14-3 7-5 4-3-1 4-6 3-9h2v-8z" fill="#291213"/>
<path transform="translate(1614,1113)" d="m0 0 44 1-1 3-22 1-6-1-7-1-3-1h-6z" fill="#110C0A"/>
<path transform="translate(1613,1063)" d="m0 0 2 2-1 4 1 3-1 2 5-2 2 2-1 9-2 1-1-4-2-1v-2l-2 1-4 8-2-1 4-21z" fill="#221512"/>
<path transform="translate(425,984)" d="m0 0 5 2 10 9 5 5 4-1 7 9 3 3 2 5-1 2h-2l-8-10-18-18-7-5z" fill="#541D1A"/>
<path transform="translate(843,933)" d="m0 0 2 1 1 10-2 10-3 2-1 7-2-4 1-14 2-11z" fill="#231413"/>
<path transform="translate(386,842)" d="m0 0h1l-1 10v34h-1l-3-15v-24z" fill="#260A0B"/>
<path transform="translate(349,1063)" d="m0 0h4l1 11-1 4h-2l-1 9h-2v5l-3 1 3-25z" fill="#282120"/>
<path transform="translate(1228,1096)" d="m0 0h1l-1 20 16 2v2h-15l-5-2-1-10 1-4z" fill="#230A0B"/>
<path transform="translate(242,769)" d="m0 0h4v2l5 1 2 3-1 2h-2l-1 2-3 1 6 1v1h-10l-2-2 1-10z" fill="#1A0B08"/>
<path transform="translate(522,837)" d="m0 0h11l1 3 7 3-2 2-4-1h-20l1-4z" fill="#2F1311"/>
<path transform="translate(1554,953)" d="m0 0h1l2 7v9l-2 1v9l-2 10-2 1-1-2v-7l2-3h-2l1-12 2-2z" fill="#1A0B08"/>
<path transform="translate(1428,1053)" d="m0 0h1l4 17 6 19 5 9 2 4-6-1-2-6-4-9-1-1-1-11-3-8z" fill="#1A0A08"/>
<path transform="translate(853,886)" d="m0 0h1l-1 16-2 2-2 7-4 8-1-2 6-30z" fill="#1D1210"/>
<path transform="translate(388,798)" d="m0 0 2 1-5 5-2 4-10 7-6 4-4-1 4-5 17-12z" fill="#1F100D"/>
<path transform="translate(1701,1033)" d="m0 0h2v2h2l1-2 4 19v5h-3l-4-11-2-8z" fill="#1B0A08"/>
<path transform="translate(1018,868)" d="m0 0 5 2-1 10-1 4h-2l-2 9-2 3 1-6 1-7h-2l1-13z" fill="#120C0A"/>
<path transform="translate(1175,860)" d="m0 0 3 1 1 11-2 7-4-1-2 11h-2l4-24z" fill="#2B2321"/>
<path transform="translate(389,823)" d="m0 0h2l-3 17-4 4-3 1 1-8 3-12z" fill="#240E0E"/>
<path transform="translate(1659,1116)" d="m0 0h1v5l-2 1h-48l1-2 48-1z" fill="#110D0B"/>
<path transform="translate(1633,1007)" d="m0 0 1 3-8 42-2-2-3-1 4-12 3-7 2-16z" fill="#1C0A08"/>
<path transform="translate(973,991)" d="m0 0 1 3-8 8-6 4-1-2-2-1 1-5 9-5z" fill="#271415"/>
<path transform="translate(362,838)" d="m0 0v3l-12 12-7 8h-3l3-5 1-4h2l2-4 7-5 3-3z" fill="#160B09"/>
<path transform="translate(1420,1016)" d="m0 0 2 1 1 15 3 7-1 3-3-2-1 26h-1l-1-19z" fill="#1A0B08"/>
<path transform="translate(1240,991)" d="m0 0 3 1 2 2-1 10-3 4-1 7-3 6-1-3z" fill="#291A19"/>
<path transform="translate(1019,1084)" d="m0 0h3v11l-1 7-6-2v-9l2-6z" fill="#210E0E"/>
<path transform="translate(535,837)" d="m0 0h8l9 3-3 1-2 4-4 1-9-5z" fill="#120C0A"/>
<path transform="translate(634,1011)" d="m0 0h2l-1 7v12l-2 9-5-1 5-26z" fill="#1F1412"/>
<path transform="translate(1259,885)" d="m0 0 4 2-1 15-4 2-1 4-2 1z" fill="#200A0B"/>
<path transform="translate(317,819)" d="m0 0h1v9l-1 1h-45l-1-4 2-1v3h41z" fill="#1D1918"/>
<path transform="translate(1443,1102)" d="m0 0h4l6 7 10 6 2 2-1 1h-5l-6-4-3-1v-2l-4-2-3-4z" fill="#220A0A"/>
<path transform="translate(1640,960)" d="m0 0h1l-1 11-5 33-2 2v-13l2-3 1-6v-17l1-2h2z" fill="#1B0A08"/>
<path transform="translate(1441,931)" d="m0 0h1v5h-2l-2 12-1 2-1 7-4 5-2 6-2-1 10-32z" fill="#322A28"/>
<path transform="translate(1343,1010)" d="m0 0h3l1 5-3 8-8 13-2-1z" fill="#2F1D1D"/>
<path transform="translate(414,956)" d="m0 0 5 3 7 8 5 6 5 5 3 4-4-1-4-3v-3h-3v-2h-2l-5-7-3-2v-2h-2z" fill="#1C0A08"/>
<path transform="translate(645,944)" d="m0 0h2v3h2l-2 15-2 5-4-2 1-10 2-4 1 1z" fill="#1A100D"/>
<path transform="translate(1460,1128)" d="m0 0 4 1 5 2 15 3 1 3-17-2-9-4z" fill="#2F201E"/>
<path transform="translate(221,731)" d="m0 0 1 3-2 13-3 12-2 11-2 1 1-11 5-25z" fill="#352927"/>
<path transform="translate(743,1123)" d="m0 0h4v4l-15 6-4-1v-3h4v2l4-2-7-1 3-2z" fill="#1D0E0B"/>
<path transform="translate(340,1138)" d="m0 0h1l1 5v8l-2 7v13 3l-3-3v-13l2-19z" fill="#2F2220"/>
<path transform="translate(1151,1118)" d="m0 0h34l3 2 1-2-1 5-5-2-32-1z" fill="#270D0E"/>
<path transform="translate(816,1117)" d="m0 0h41l8 1v3l-3-1-20-1h-22z" fill="#270A0C"/>
<path transform="translate(653,907)" d="m0 0h1l1 10-2 10-2 1v-3h-2l-1-3 3-14z" fill="#1F1411"/>
<path transform="translate(341,1158)" d="m0 0h3v3h2l4 4 11 8 7 4 10 5-3 1-14-7-11-8-4-1-4-4z" fill="#250A0B"/>
<path transform="translate(467,1044)" d="m0 0h3l1 7v14l2-1-2 5-3 3h-2l1-8z" fill="#211715"/>
<path transform="translate(1143,1045)" d="m0 0h2l2 10-2 11h-2l-1-4-2-1z" fill="#1D1816"/>
<path transform="translate(1325,1115)" d="m0 0h3l-1 7-7 3-4-1 3-5h-3v-3z" fill="#1D0E0B"/>
<path transform="translate(379,860)" d="m0 0h1v31h-2l-1-9v-16z" fill="#1D1917"/>
<path transform="translate(1535,912)" d="m0 0h6l7 8 4 10v7h-2l-4-13-4-6v-2l-4-2z" fill="#33201E"/>
<path transform="translate(1042,957)" d="m0 0 1 3-3 18-2-4-2-5 2-10z" fill="#241815"/>
<path transform="translate(1163,924)" d="m0 0 3 1 2 10-2 8-5-2z" fill="#241816"/>
<path transform="translate(267,1049)" d="m0 0h3v30h-1v-8h-2z" fill="#130C0A"/>
<path transform="translate(422,979)" d="m0 0 4 2 8 5 5 5 6 4v3l3 1-1 2-4-2-10-10-6-4-4-2z" fill="#170B08"/>
<path transform="translate(741,1020)" d="m0 0h1v12l-1 1v9l-3 2-1-2v-8l2-12z" fill="#1A1310"/>
<path transform="translate(295,712)" d="m0 0h3l1 7h-2l-1 5-6 1 3-12z" fill="#2E201E"/>
<path transform="translate(1541,1032)" d="m0 0 1 4-3 6-8 9-3 1 1-4 6-9 1-3 3-1z" fill="#301D1C"/>
<path transform="translate(1028,1017)" d="m0 0h7l-1 11-2 7h-1l-2-11-1-1z" fill="#240E0E"/>
<path transform="translate(348,1087)" d="m0 0h1l1 14-2 5h-4v-8l2-6h2z" fill="#181311"/>
<path transform="translate(1020,1062)" d="m0 0 2 2v10l-1 4v6l-5 2z" fill="#251F1D"/>
<path transform="translate(253,821)" d="m0 0h2v7l-1 1h-49l1-2h46z" fill="#110C0A"/>
<path transform="translate(399,950)" d="m0 0 4 4 2 5h5l3 8 6 8v2l-3-1-8-12-6-7-3-5z" fill="#95302C"/>
<path transform="translate(1721,910)" d="m0 0 8 1 6 5 2 5v3l2 1-2 4h-1l-2-9-4-4-9-3z" fill="#4B2522"/>
<path transform="translate(316,1185)" d="m0 0 7 6 10 10 8 7 7 5-3 1-5-3v-2l-4-2-20-20z" fill="#251C1A"/>
<path transform="translate(692,1130)" d="m0 0h17l1 2h-3v2h-15l-1-2z" fill="#110C0A"/>
<path transform="translate(1182,859)" d="m0 0h1v8l-5 29h-2l1-13 4-20-1-3z" fill="#250A0B"/>
<path transform="translate(1617,1024)" d="m0 0 2 1 1 1v12l-2 3h-2l-1 3-1-2z" fill="#2C1E1C"/>
<path transform="translate(893,999)" d="m0 0h4l1 2v6h-2v5l-4 2-1 3v-8l1-2h2l-1-6z" fill="#240A0B"/>
<path transform="translate(437,982)" d="m0 0 4 1 11 8 5 4 2 3-1 3-1-3-3-1v-2l-5-2-6-4v-2h-2v-2l-4-2z" fill="#220A0A"/>
<path transform="translate(209,817)" d="m0 0h47l-1 4h-2v5h-1v-7l-43-1z" fill="#290D0F"/>
<path transform="translate(1011,1130)" d="m0 0 2 1 55 1v1h-58z" fill="#110D0B"/>
<path transform="translate(1065,1118)" d="m0 0h5l1 1v7l-2 6h-8l6-7v-5z" fill="#251311"/>
<path transform="translate(1423,996)" d="m0 0h1v14l-2 6h-3l1-13z" fill="#221714"/>
<path transform="translate(388,1195)" d="m0 0 9 2 9 3v3l-16-4-5-2z" fill="#2F1513"/>
<path transform="translate(1146,1029)" d="m0 0 4 4v9l-2 6h-1v-6h-2l-1-4z" fill="#1D1816"/>
<path transform="translate(1519,905)" d="m0 0 2 1-1 3 8 1-2 2-8 3-5 1 2-7z" fill="#26100E"/>
<path transform="translate(466,1195)" d="m0 0h11v2h2v2l-12 3v-2l-2-2z" fill="#241714"/>
<path transform="translate(459 1e3)" d="m0 0 5 5 8 14 1 6-4-4-1-6-3-1-2-4v-3h-2l-3-6z" fill="#1B0A08"/>
<path transform="translate(1545 1e3)" d="m0 0 4 2-1 6h-1l-1 8h-2l-1 3-2-1z" fill="#241C1A"/>
<path transform="translate(719,1128)" d="m0 0h17l1 2-5 1v-2l-3 1-1 4-5 1-1-4-4-2z" fill="#2B1213"/>
<path transform="translate(1159,959)" d="m0 0 1 3h2l-2 13-3 3-2-1 3-17z" fill="#2A201D"/>
<path transform="translate(1253,934)" d="m0 0h1v10l-2 6h-2v-3l-2-1 2-11z" fill="#241715"/>
<path transform="translate(343,1148)" d="m0 0h2v13l-1-3-2 1-1 4-1 5h-1v-10l2-7h2z" fill="#1A0A08"/>
<path transform="translate(640,968)" d="m0 0h2v17h-2l-1 2h-2z" fill="#1E1917"/>
<path transform="translate(648,923)" d="m0 0 2 2 1 14-1 7-2-4v-5h-2z" fill="#190B08"/>
<path transform="translate(467,1289)" d="m0 0 3 2-15 5-11 2 1-3 14-3z" fill="#170B08"/>
<path transform="translate(1026,1065)" d="m0 0 1 4-4 21h-2v-8l3-15z" fill="#270A0C"/>
<path transform="translate(1330,916)" d="m0 0 7 2 6 10 1 4-4-1-5-9-5-4z" fill="#4A211E"/>
<path transform="translate(1318,905)" d="m0 0h9v1l-6 1v4h2l1 5-9-1 2-1v-8z" fill="#230F0D"/>
<path transform="translate(342,1118)" d="m0 0h2v10l-2 6h3l-1 6h-2l-1-10-1-2z" fill="#241916"/>
<path transform="translate(1438,1114)" d="m0 0 5 1 7 7 5 3-1 2-4-1-10-9z" fill="#4C2623"/>
<path transform="translate(1260,903)" d="m0 0h1l-1 11-3 6h-1l-1-11 3-5z" fill="#1F0A0A"/>
<path transform="translate(1031 1e3)" d="m0 0h3v16h-2l-3-4z" fill="#251E1C"/>
<path transform="translate(746 1e3)" d="m0 0 1 2-2 11-5 2v-7h2v-5z" fill="#150B09"/>
<path transform="translate(425,984)" d="m0 0 5 2 10 9 11 10v2l-4-2-15-15-7-5z" fill="#B0413D"/>
<path transform="translate(1018,875)" d="m0 0 1 3h2l1-2-1 8h-2l-2 9-2 3 1-6 1-7h-2l1-7z" fill="#1D0F0C"/>
<path transform="translate(341,1129)" d="m0 0 1 2v9h2l1-3h1l-1 11h-2l-1 3-2-13v-8z" fill="#1F0B0B"/>
<path transform="translate(762,916)" d="m0 0h1l-1 10-2 7h-1v-7h-2l1-8h3z" fill="#1B100D"/>
<path transform="translate(547,844)" d="m0 0 4 1 8 3v2l4 1 1 4-13-6-5-2z" fill="#1E1512"/>
<path transform="translate(1698,1006)" d="m0 0h2l2 9v7l-1-2h-2l-2-4v-8z" fill="#240A0B"/>
<path transform="translate(1347,987)" d="m0 0h2l1 10-2 7h-3z" fill="#211A18"/>
<path transform="translate(1046,944)" d="m0 0h1l-1 10-4 20-2 3 1-9 3-17z" fill="#270A0C"/>
<path transform="translate(1640,893)" d="m0 0h3v11l-3-1-1 13h-2z" fill="#302826"/>
<path transform="translate(1553,971)" d="m0 0 2 4-2 14-2 1-1-2v-7l2-3h-2v-3h2z" fill="#180B08"/>
<path transform="translate(273,821)" d="m0 0 2 3 18 1 2 2h-22l-2-4h2z" fill="#260F0F"/>
<path transform="translate(1248,947)" d="m0 0h2v3h2l1-3 1 4-2 11-2 1-1-11z" fill="#220A0B"/>
<path transform="translate(1257,911)" d="m0 0m-1 1m-2 1 2 1 1 11-2 1-3 5-1-2z" fill="#2D2422"/>
<path transform="translate(763,881)" d="m0 0 3 1v8l-2 2-1 5-2 7-1-2z" fill="#332F2D"/>
<path transform="translate(1432,1099)" d="m0 0 1 2h2l6 12-3 1-6-8z" fill="#301210"/>
<path transform="translate(744,995)" d="m0 0 2 1v10l-3 3-1 4-2-1 3-16z" fill="#25201E"/>
<path transform="translate(765,868)" d="m0 0h6l1 5-2 1-2 7h-1l-1-7-1-1z" fill="#140C09"/>
<path transform="translate(636,832)" d="m0 0 4 1 6 10-2 2-4-5-5-3z" fill="#2B1F1D"/>
<path transform="translate(350,1076)" d="m0 0 1 2h2v8l-3 11h-1v-10z" fill="#1A0B08"/>
<path transform="translate(353,1064)" d="m0 0h2l1 11-2 13-2 2 1-22-2-2h2z" fill="#220A0A"/>
<path transform="translate(1622,1051)" d="m0 0 2 1 1 1-1 10-2 10h-1v-16z" fill="#1B0A08"/>
<path transform="translate(1242,1006)" d="m0 0 1 4-2 9-4 9h-1v-7l3-6 1-7z" fill="#1F0A0A"/>
<path transform="translate(635 1e3)" d="m0 0 3 1v12l-2 6h-1l1-9h-2z" fill="#140C09"/>
<path transform="translate(646,937)" d="m0 0h2l1 10h-2v-3h-2l1 2v6l-2 1-1-4 2-11z" fill="#26211F"/>
<path transform="translate(1258,890)" d="m0 0h2v12l-3 6-2 1z" fill="#37312F"/>
<path transform="translate(319,1270)" d="m0 0 5 2 9 6-1 3-14-9z" fill="#291715"/>
<path transform="translate(849,908)" d="m0 0 2 1-2 13-2 2-3-1 1-5 2-6z" fill="#190B08"/>
<path transform="translate(1177,860)" d="m0 0 4 1 1 4-3 12-2 1 1-12z" fill="#1A0B08"/>
<path transform="translate(384,829)" d="m0 0 2 3v10l-5 3 1-8z" fill="#140C0A"/>
<path transform="translate(297,719)" d="m0 0h1l-1 14-1 4h-2v-14l2-1z" fill="#270A0C"/>
<path transform="translate(1443,1102)" d="m0 0h4l5 7-2 4v-2l-4-2-3-4z" fill="#1F0A09"/>
<path transform="translate(1116,909)" d="m0 0h26v1h-24l1 3-2 3h-2v-6z" fill="#260A0B"/>
<path transform="translate(850,900)" d="m0 0 2 3 2-1-4 20h-1v-8l1-5z" fill="#270A0C"/>
<path transform="translate(1626,981)" d="m0 0 2 1-2 5 1 1-1 7-1 5-3-1 3-17z" fill="#352321"/>
<path transform="translate(1248,951)" d="m0 0 2 1v11l-2 2h-3l2-13z" fill="#251C1A"/>
<path transform="translate(1435,949)" d="m0 0 2 1-1 7-4 5-2 6-2-1 5-15h2z" fill="#342726"/>
<path transform="translate(554,1186)" d="m0 0h2v2l-9 7-6 5h-2l2-4z" fill="#160B09"/>
<path transform="translate(1621 1e3)" d="m0 0 3 1-3 17-3-1z" fill="#2C1D1B"/>
<path transform="translate(847,901)" d="m0 0 3 1-1 9-4 8-1-2z" fill="#332F2D"/>
<path transform="translate(269,1218)" d="m0 0 4 2v2l4 1 4 9-1 2-7-9z" fill="#331F1D"/>
<path transform="translate(1469,1121)" d="m0 0 14 2 12 3v1l-12-1-14-4z" fill="#1A0B08"/>
<path transform="translate(1014,1098)" d="m0 0 1 2 4 1-1 4h-2l-1 8h-2z" fill="#271D1B"/>
<path transform="translate(1021,1062)" d="m0 0h2v2l3 1-2 7-2 10-2-4 1-6z" fill="#190B08"/>
<path transform="translate(758,935)" d="m0 0h1v12l-6-2 1-6h3z" fill="#1C110E"/>
<path transform="translate(756,926)" d="m0 0h3l-1 13-2 1-2-2z" fill="#261E1C"/>
<path transform="translate(1740,914)" d="m0 0h1v11l-4 13h-1v-9l2-4-1-2 2-1z" fill="#180B09"/>
<path transform="translate(294,889)" d="m0 0h3l-2 5-7 10-2-1z" fill="#2B1310"/>
<path transform="translate(585,861)" d="m0 0 4 1-2 7-5-3-2-4z" fill="#473634"/>
<path transform="translate(242,769)" d="m0 0 4 1-4 1v8l10 2v1h-10l-2-2 1-10z" fill="#200A0B"/>
<path transform="translate(1357,1096)" d="m0 0v3l-9 9-3-1 2-5 5-2z" fill="#130C0A"/>
<path transform="translate(474,1052)" d="m0 0h1v9l-1 3-4 2v-12l2 4z" fill="#260A0B"/>
<path transform="translate(634,1011)" d="m0 0h2l-2 18-2-2-1-6 2-9z" fill="#2C2422"/>
<path transform="translate(1460,1128)" d="m0 0 4 1 6 3v3l-10-3z" fill="#2D1F1C"/>
<path transform="translate(344,1119)" d="m0 0h2l1 5-2 10h-3z" fill="#140C0A"/>
<path transform="translate(814,1108)" d="m0 0h1l1 10-2 1-4-3 2-7z" fill="#2C1717"/>
<path transform="translate(754,947)" d="m0 0h1l-1 14-4-2 2-11z" fill="#261E1C"/>
<path transform="translate(341,1158)" d="m0 0h3v3h2l8 8h-3l-5-2-4-4z" fill="#230A0A"/>
<path transform="translate(1486,1134)" d="m0 0h12l2 3h-15z" fill="#160B09"/>
<path transform="translate(1694,1056)" d="m0 0h3v14h-2l-2-13z" fill="#291816"/>
<path transform="translate(892,1026)" d="m0 0 3 1 1 6h2l-2 4-3-1-2-9z" fill="#2E1718"/>
<path transform="translate(1027,1023)" d="m0 0 3 1v6l-2 7-3-1z" fill="#241F1D"/>
<path transform="translate(1340,1019)" d="m0 0h2v7l-6 10-2-1z" fill="#271F1D"/>
<path transform="translate(746,984)" d="m0 0h2l1 3v9h-2l-1-5-2-1z" fill="#1D1917"/>
<path transform="translate(911,906)" d="m0 0h9l3 2h-7l-2 2v3h-5l2-2-1-4z" fill="#1F0A0B"/>
<path transform="translate(381,895)" d="m0 0h5l2 3-1 4h-3l-1 2v-4h-2z" fill="#120C0A"/>
<path transform="translate(269,934)" d="m0 0 1 2-2 8-3 3-3 6-1-2 7-16z" fill="#564240"/>
<path transform="translate(936,929)" d="m0 0 4 1-2 14h-2z" fill="#140C09"/>
<path transform="translate(1528,900)" d="m0 0h12l7 2 5 5-1 2-4-4-8-3-11-1z" fill="#230A0A"/>
<path transform="translate(1717,894)" d="m0 0 7 1 8 4 1 2h-5l-4-3-4-1v-2z" fill="#220A0A"/>
<path transform="translate(288,739)" d="m0 0h2v8l-2 5-2-2 1-10z" fill="#1C1210"/>
<path transform="translate(1223,1097)" d="m0 0h2l1 4-2 4v5l-2 5-2-1z" fill="#393433"/>
<path transform="translate(822,1044)" d="m0 0h4v8l-2 5-2-3v-5l2-2h-2z" fill="#180B08"/>
<path transform="translate(1026,1042)" d="m0 0 1 2h2l-3 18-2-4v-4h2z" fill="#190B08"/>
<path transform="translate(339,837)" d="m0 0 2 1-4 2zm-4 3 2 1-3 2zm-3 3 2 1-3 5-3 3-3-1 3-4h2z" fill="#3B3432"/>
<path transform="translate(208,797)" d="m0 0h2v8l-3 8-2 1z" fill="#3B2827"/>
<path transform="translate(609,800)" d="m0 0 3 1 7 8 6 7-4-2-5-5-5-4-3-4z" fill="#1E1A18"/>
<path transform="translate(652,1121)" d="m0 0 10 4 1 5-11-6z" fill="#2A1A17"/>
<path transform="translate(1608,1089)" d="m0 0h1l-1 12-4 1 2-12z" fill="#36211F"/>
<path transform="translate(736,1047)" d="m0 0h2l1 4-3 7-3-1 2-9z" fill="#291A17"/>
<path transform="translate(645,944)" d="m0 0h2v3h2l-1 5-4 4-2 4 1-9 2 1z" fill="#150B09"/>
<path transform="translate(296,1159)" d="m0 0 4 2 8 11h-3l-5-5-3-5z" fill="#352927"/>
<path transform="translate(843,933)" d="m0 0 2 1v8l-2 2v-2h-2l-1-3 1-5z" fill="#251917"/>
<path transform="translate(276,924)" d="m0 0 1 3-4 6-3 5-1-2 4-10z" fill="#170B08"/>
<path transform="translate(313,866)" d="m0 0v3l-5 8-5 1 6-9z" fill="#170B08"/>
<path transform="translate(480,1192)" d="m0 0m-5 1 7 1 1 3-4 1-2-1v-2l-7 1v-2z" fill="#210A0B"/>
<path transform="translate(629,1103)" d="m0 0 1 3-3 6-4 1 2-6z" fill="#271A17"/>
<path transform="translate(1343,935)" d="m0 0 4 1 2 7h-2l1 3-2 1z" fill="#491F1C"/>
<path transform="translate(916,907)" d="m0 0 7 1-3 1-2 5-4-2v-3z" fill="#381C19"/>
<path transform="translate(658,893)" d="m0 0h1v6l-3 7h-1v-9l1-3z" fill="#170B08"/>
<path transform="translate(767,864)" d="m0 0 6 1v8l-2-2v-3l-5 1z" fill="#2D1313"/>
<path transform="translate(205,820)" d="m0 0 2 4 5 2v1l-9 2-1-3 1-4h2z" fill="#442323"/>
<path transform="translate(821,1063)" d="m0 0 1 3-1 11-2 1-1-6h2v-4h-2l1-4z" fill="#180B08"/>
<path transform="translate(1238 1e3)" d="m0 0 3 3-1 7-3 6-1-3z" fill="#47413F"/>
<path transform="translate(750,960)" d="m0 0 4 1-1 11-2 1z" fill="#120C0A"/>
<path transform="translate(1721,910)" d="m0 0 8 1 2 2-1 3-9-3z" fill="#442523"/>
<path transform="translate(378,1295)" d="m0 0 11 1 4 2v1l-11-1-4-1z" fill="#1A0B08"/>
<path transform="translate(501,1275)" d="m0 0h2l1 3-6 3h-5l4-4z" fill="#2E2220"/>
<path transform="translate(568,1174)" d="m0 0 1 3-6 6-4-1h2l2-4z" fill="#4A4240"/>
<path transform="translate(1153,989)" d="m0 0 6 2-1 5-3 3-1-6z" fill="#140C09"/>
<path transform="translate(1158,980)" d="m0 0h1v10l-2 1-4-3 1-2h3z" fill="#1F1310"/>
<path transform="translate(415,969)" d="m0 0 4 2 3 5 2 6-4-2-2-3-2-5z" fill="#380F0D"/>
<path transform="translate(1162,944)" d="m0 0 1 3h2l-2 4-1 4-3-1 1-9z" fill="#2C2320"/>
<path transform="translate(403,787)" d="m0 0m-1 1m-2 1h2l-2 4-7 5-3-1 5-4z" fill="#241B19"/>
<path transform="translate(1020,1062)" d="m0 0 2 2v10l-2 1-2-2z" fill="#211C1B"/>
<path transform="translate(459 1e3)" d="m0 0 5 5 3 5-1 3v-2l-3-1v-3h-2l-3-6z" fill="#1D0A09"/>
<path transform="translate(1035,1007)" d="m0 0h1v10h-2v-9zm-6 7 3 1v2l2 1-5-1z" fill="#200A0B"/>
<path transform="translate(1628,965)" d="m0 0 3 1-1 4 1 3-2 4-3 1z" fill="#342C2A"/>
<path transform="translate(485,1283)" d="m0 0m-1 1 1 2-8 3h-5l2-3z" fill="#170B08"/>
<path transform="translate(398,1198)" d="m0 0 8 2v3l-10-2-1-2z" fill="#3A2624"/>
<path transform="translate(1136,1090)" d="m0 0 5 2-1 5-3-1v4h-2z" fill="#2F2422"/>
<path transform="translate(898,1009)" d="m0 0 2 1 1 3v8l-4-5z" fill="#250A0B"/>
<path transform="translate(892 1e3)" d="m0 0 2 1v6h-2l-1 10h-1v-12z" fill="#1A0B08"/>
<path transform="translate(1154,992)" d="m0 0h1v7l-2 5-2-4 1-7z" fill="#261C1A"/>
<path transform="translate(1553,964)" d="m0 0h1v7l-1 5-3-1 1-9z" fill="#191513"/>
<path transform="translate(648,923)" d="m0 0 2 2v8l-1 2h-2l-1 2z" fill="#120C0A"/>
<path transform="translate(386,883)" d="m0 0h1l2 12v5l-4-5 1-4-1-5z" fill="#1A0B08"/>
<path transform="translate(567,854)" d="m0 0 4 2v2l7 2-1 3-12-7z" fill="#332623"/>
<path transform="translate(307,818)" d="m0 0h7v4h-4l-3 1-1-4z" fill="#110D0B"/>
<path transform="translate(276,1112)" d="m0 0h2l4 12h-3l-3-8z" fill="#1D1412"/>
<path transform="translate(1025,1036)" d="m0 0 4 2v6h-2v-2h-3z" fill="#1A1513"/>
<path transform="translate(1034,985)" d="m0 0 2 2 1 8-5 1z" fill="#332F2D"/>
<path transform="translate(306,913)" d="m0 0 2 1-6 10h-2l1-4 4-6z" fill="#160B09"/>
<path transform="translate(347,1124)" d="m0 0h1v10l-1 3h-2l1-12z" fill="#240A0B"/>
<path transform="translate(851,1117)" d="m0 0 14 1v3l-3-1-13-1z" fill="#1D0A09"/>
<path transform="translate(1150,1006)" d="m0 0 4 4-1 9h-2z" fill="#110D0B"/>
<path transform="translate(1041,949)" d="m0 0h1v9l-4 1 1-8z" fill="#191514"/>
<path transform="translate(1643,943)" d="m0 0h1l-1 10-2 3-1-9 3-1z" fill="#1C0A08"/>
<path transform="translate(292,937)" d="m0 0 3 1-5 12h-2l1-5 3-7z" fill="#433836"/>
<path transform="translate(299,924)" d="m0 0 3 1-5 10h-2l1-6h2z" fill="#4B413F"/>
<path transform="translate(843,923)" d="m0 0h3v7l-2 2-2-1z" fill="#231E1C"/>
<path transform="translate(1425,1088)" d="m0 0 4 2 1 10-3-4-2-5z" fill="#291E1D"/>
<path transform="translate(1019,1084)" d="m0 0h3l-2 8-2-4h-2l1-3z" fill="#160B09"/>
<path transform="translate(1140,1067)" d="m0 0 2 1v7l-4 2 1-9z" fill="#241F1D"/>
<path transform="translate(1710,1057)" d="m0 0h1l2 10-1 4-3-3z" fill="#1A0A08"/>
<path transform="translate(1030,1027)" d="m0 0h1v8l-1 7-2-4v-6z" fill="#190B08"/>
<path transform="translate(1037,977)" d="m0 0h1v10l-4-3 1-6z" fill="#231F1D"/>
<path transform="translate(1328,906)" d="m0 0 6 1 9 6-2 1-13-7z" fill="#250A0B"/>
<path transform="translate(1015,883)" d="m0 0h2v7l-3 7-1-2z" fill="#2C2827"/>
<path transform="translate(340,836)" d="m0 0 4 1-7 7-5 2 5-6 3-3z" fill="#1F0C09"/>
<path transform="translate(215,756)" d="m0 0h1v11l-2 4h-1l1-11z" fill="#363130"/>
</svg>
